PathFileType	4	(X/Y/Z)	C:/Users/beibeiliu/ov580/test_trc/User3\sequence.26_training_dense_left.trc
DataRate	CameraRate	NumFrames	NumMarkers	Units	OrigDataRate	OrigDataStartFrame	OrigNumFrames
120	120	13	19	mm	120	67	266
Frame#	Time	ThumbCMC			ThumbMCP			ThumbIP			ThumbTip			IndexMCP			IndexPIP			IndexTip			MiddleMCP			MiddlePIP			MiddleTip			RingMCP			RingPIP			RingTip			PinkyMCP			PinkyPIP			PinkyTip			BackHand1			BackHand2			BackHand3	
		X0	Y0	Z0	X1	Y1	Z1	X2	Y2	Z2	X3	Y3	Z3	X4	Y4	Z4	X5	Y5	Z5	X6	Y6	Z6	X7	Y7	Z7	X8	Y8	Z8	X9	Y9	Z9	X10	Y10	Z10	X11	Y11	Z11	X12	Y12	Z12	X13	Y13	Z13	X14	Y14	Z14	X15	Y15	Z15	X16	Y16	Z16	X17	Y17	Z17	X18	Y18	Z18	
66	0.55	-245.108	27.816	0.501561	-227.621	48.702	-20.7366	-199.869	53.8434	-36.9341	-172.976	49.89	-41.3702	-212.947	27.5386	-65.7315	-203.654	38.7114	-88.1209	-195.483	46.2438	-111.39	-181.076	32.9573	-57.2308	-170.817	57.2218	-62.3913	-155.287	90.7283	-50.6111	-173.629	35.2848	-26.8785	-170.708	58.6049	-7.33314	-188.367	63.84	16.819	-166.002	24.3468	-11.4551	-175.49	44.7225	6.4476	-195.604	38.0986	27.4222	-202.689	-16.071	-13.2361	-213.716	-25.5896	11.0398	-236.234	-7.57737	-13.3552	
67	0.558333	-248.711	26.5468	-1.13631	-229.982	46.6046	-21.3633	-203.052	52.997	-41.177	-176.321	44.5069	-42.654	-214.563	23.346	-67.3142	-209.46	34.5317	-89.2759	-203.414	40.3947	-112.88	-185.945	28.8181	-57.8959	-171.815	55.6845	-64.5812	-159.25	85.3307	-56.9214	-176.942	32.2067	-30.2359	-176.454	58.2977	-10.4704	-193.631	62.3764	14.4343	-169.234	27.4401	-12.4474	-179.757	44.5066	6.65948	-203.381	35.5914	22.6678	-204.103	-18.6465	-14.2022	-216.697	-25.0881	10.2601	-238.436	-8.26965	-13.4299	
68	0.566667	-250.605	25.4621	-0.126172	-232.055	45.4447	-23.2184	-208.031	48.3743	-40.1104	-180.032	44.1078	-47.3212	-220.037	20.6371	-72.005	-213.383	28.9904	-96.3419	-205.555	33.1903	-115.75	-189.82	24.1627	-62.1156	-175.965	48.1581	-68.279	-165.163	81.0142	-64.6719	-181.826	27.345	-34.8671	-178.039	54.1208	-16.6126	-190.465	59.465	11.1258	-169.632	22.1812	-15.887	-181.697	42.653	0.2768	-204.029	37.0601	16.5851	-206.366	-19.1716	-17.8955	-218.01	-30.3897	10.6892	-239.32	-9.8001	-13.5537	
69	0.575	-249.236	20.7406	0.970195	-231.508	39.3247	-25.733	-208.539	44.5217	-45.4256	-183.01	40.6124	-51.1995	-226.183	17.4178	-74.5579	-216.994	24.7648	-97.9548	-210.049	28.3692	-118.765	-190.939	21.7483	-65.4136	-178.012	42.9257	-72.5129	-164.987	77.5726	-69.8512	-180.608	23.2724	-35.5205	-176.225	48.5403	-21.0491	-192.695	57.8246	5.77542	-171.129	18.865	-20.4815	-181.392	39.5734	-5.26483	-199.978	36.9967	14.9877	-208.955	-25.4118	-15.7828	-220.66	-32.9127	13.9447	-242.232	-13.014	-13.1594	
70	0.583333	-251.842	20.3997	-1.98653	-232.347	34.0756	-25.0309	-209.432	40.3434	-47.7455	-184.304	33.561	-55.3413	-228.063	11.992	-76.1736	-223.808	18.9826	-95.4539	-211.811	21.5019	-122.679	-197.445	15.6734	-67.4236	-180.018	36.8519	-76.0357	-168.396	69.4777	-77.7302	-181.737	17.1459	-39.1599	-179.979	47.1227	-22.9977	-194.182	53.9896	6.4502	-171.659	14.4092	-23.4135	-176.545	33.7031	-6.9647	-202.958	33.5872	11.2242	-209.284	-28.5662	-18.8923	-226.047	-32.6358	10.4953	-244.921	-15.4746	-13.4968	
71	0.591667	-250.754	17.1244	-7.37478	-234.424	34.1018	-28.0211	-210.182	33.6897	-49.7654	-184.366	28.9412	-59.0694	-223.672	4.49583	-76.9838	-219.751	11.843	-101.012	-212.117	13.6159	-125.29	-197.172	6.90298	-70.2934	-182.438	29.9782	-81.77	-163.854	61.7385	-85.5707	-183.683	14.9963	-42.7171	-177.33	38.2925	-30.5798	-191.538	51.1194	1.70651	-173.521	3.83729	-26.282	-178.36	29.6846	-12.2693	-200.57	33.6032	8.91699	-210.99	-31.5017	-21.0171	-225.397	-37.0853	8.76405	-248.092	-17.1994	-17.4903	
72	0.6	-251.824	16.8923	-5.76968	-232.42	28.9952	-32.0139	-209.772	29.7476	-55.8343	-184.924	17.8457	-60.5055	-224.701	-2.51604	-79.2002	-218.736	1.68548	-100.993	-214.03	4.09378	-124.271	-193.768	-0.959543	-72.9998	-175.981	19.7674	-84.9102	-159.901	46.3951	-90.4376	-181.965	6.12275	-44.6298	-175.791	34.306	-33.0671	-188.617	48.8499	-5.47388	-176.605	-1.98485	-30.5441	-174.843	22.9912	-16.2187	-192.985	30.4567	8.02688	-213.471	-38.2037	-18.3553	-229.823	-39.5618	11.3218	-247.383	-21.264	-15.1011	
73	0.608333	-249.202	13.6742	-7.33173	-228.463	19.1716	-35.6101	-204.211	16.2334	-58.6231	-181.919	8.70192	-63.4869	-226.038	-10.6369	-78.1295	-219.767	-8.07855	-103.436	-208.338	-11.432	-126.838	-197.095	-12.0516	-72.9955	-177.046	3.06358	-85.5538	-153.109	31.6934	-92.9533	-183.805	-6.13267	-46.7366	-173.641	24.1322	-35.5424	-182.338	40.3781	-8.53601	-174.369	-9.03786	-30.9828	-171.277	13.8008	-16.3733	-193.075	24.02	2.19788	-218.243	-40.978	-19.9167	-227.623	-43.369	10.5142	-247.621	-23.8538	-16.6039	
74	0.616667	-243.408	10.2669	-10.2303	-223.233	16.7922	-39.4884	-198.46	6.01577	-59.9152	-177.356	-4.40557	-64.7118	-221.416	-21.0966	-77.5665	-212.65	-22.9934	-100.995	-205.34	-25.5974	-125.356	-192.76	-24.6197	-73.0343	-171.376	-11.614	-84.5785	-149.692	12.4192	-93.5164	-182.898	-18.2706	-45.5382	-165.271	10.8359	-34.7657	-172.929	27.7537	-14.3174	-171.535	-23.1936	-27.1447	-168.387	0.174579	-20.0788	-185.268	16.9815	-1.36127	-218.199	-46.74	-11.613	-236.232	-42.7108	13.2578	-249.335	-24.4225	-15.5427	
75	0.625	-239.34	10.0896	-14.7513	-215.547	9.16447	-39.6067	-194.156	-0.886378	-59.0335	-172.28	-16.185	-61.7041	-217.064	-33.1468	-74.638	-206.234	-36.8294	-100.324	-199.881	-39.6981	-123.201	-190.852	-36.0508	-69.0843	-166.066	-26.0797	-81.4528	-138.37	-2.6744	-89.0505	-176.017	-28.8476	-40.5707	-162.191	-1.63844	-36.2133	-169.361	20.5661	-9.1366	-173.006	-34.5047	-23.9477	-162.332	-10.0487	-16.3532	-179.171	10.8658	-2.3402	-220.188	-50.2638	-15.1205	-237.375	-42.4638	16.8668	-248.08	-27.8105	-11.9607	
76	0.633333	-233.422	7.15656	-17.776	-210.323	6.17284	-40.8511	-188.282	-11.1848	-55.7542	-167.65	-25.8785	-61.2268	-217.975	-34.6477	-74.7294	-207.488	-41.5165	-99.6783	-195.259	-50.1458	-118.837	-186.461	-43.3525	-68.3569	-161.393	-35.6482	-79.2549	-136.35	-14.7866	-86.539	-176.402	-36.0539	-41.4417	-155.762	-11.204	-30.5616	-163.261	8.7901	-9.40394	-168.034	-41.6277	-21.7332	-159.217	-18.408	-14.978	-174.194	5.87448	1.98274	-220.677	-53.0479	-9.11925	-233.168	-48.6908	16.4789	-244.222	-31.1823	-15.6463	
77	0.641667	-227.992	4.91542	-12.9395	-205.192	1.23921	-38.7551	-182.448	-12.9957	-56.3123	-165.609	-30.5907	-57.9172	-213.14	-38.8806	-73.4583	-203.836	-45.1629	-98.7553	-192.367	-54.8015	-120.343	-186.611	-46.188	-67.5919	-161.735	-39.0401	-78.4206	-130.533	-22.598	-80.1642	-172.363	-40.6447	-38.7429	-153.558	-17.5606	-26.6363	-162.539	3.90751	-4.11961	-168.056	-45.609	-22.7792	-158.134	-22.1814	-13.0569	-170.158	-4.21721	1.63424	-221.148	-58.5482	-10.8889	-233.761	-47.439	17.3561	-242.102	-31.1623	-15.3478	
78	0.65	-222.067	10.7561	-13.9756	-198.021	1.01411	-39.2482	-177.817	-15.2436	-53.1976	-164.028	-36.4582	-52.4982	-208.485	-35.9308	-76.0952	-201.088	-40.511	-97.9236	-190.149	-50.1242	-118.506	-184.578	-49.1496	-63.3041	-153.631	-40.5688	-77.288	-125.635	-25.6232	-78.6565	-173.611	-45.2065	-37.763	-150.108	-24.5303	-23.7937	-156.55	-4.14353	-2.85526	-171.291	-52.2317	-20.1348	-156.832	-26.6805	-9.50856	-166.345	-8.58625	7.24356	-222.243	-52.3812	-11.2669	-233.902	-44.3255	14.0333	-239.569	-22.5342	-16.3868	
